<?xml version="1.0" standalone="no"?>
<!DOCTYPE svg PUBLIC "-//W3C//DTD SVG 20010904//EN"
 "http://www.w3.org/TR/2001/REC-SVG-20010904/DTD/svg10.dtd">
<svg version="1.0" xmlns="http://www.w3.org/2000/svg"
 width="249.000000pt" height="67.000000pt" viewBox="0 0 249.000000 67.000000"
 preserveAspectRatio="xMidYMid meet">

<g transform="translate(0.000000,67.000000) scale(0.100000,-0.100000)"
fill="#000000" stroke="none">
<path d="M818 549 c-16 -9 -18 -26 -18 -124 0 -96 3 -115 15 -115 10 0 15 10
15 30 0 27 3 30 30 30 27 0 30 -3 30 -30 0 -20 5 -30 15 -30 12 0 15 19 15
115 0 103 -2 115 -19 125 -25 13 -61 12 -83 -1z m70 -86 l3 -63 -31 0 -30 0 0
58 c0 65 5 74 35 70 17 -3 20 -11 23 -65z"/>
<path d="M972 551 c-19 -11 -27 -83 -13 -110 9 -15 21 -21 46 -21 29 0 36 -4
41 -27 8 -32 -6 -58 -32 -58 -12 0 -20 8 -22 23 -4 28 -42 31 -42 3 0 -35 12
-50 44 -56 17 -4 44 -2 59 4 25 10 27 15 27 64 0 62 -11 77 -58 77 -32 0 -33
1 -30 38 2 29 7 37 23 37 13 0 21 -8 23 -23 2 -15 9 -22 20 -20 23 4 27 42 7
62 -17 17 -71 21 -93 7z"/>
<path d="M1128 549 c-16 -9 -18 -26 -18 -124 0 -96 3 -115 15 -115 10 0 15 10
15 30 0 27 3 30 30 30 27 0 30 -3 30 -30 0 -20 5 -30 15 -30 12 0 15 19 15
115 0 103 -2 115 -19 125 -25 13 -61 12 -83 -1z m70 -86 l3 -63 -31 0 -30 0 0
58 c0 65 5 74 35 70 17 -3 20 -11 23 -65z"/>
<path d="M2450 539 c0 -25 33 -22 38 4 2 12 -3 17 -17 17 -15 0 -21 -6 -21
-21z"/>
<path d="M640 476 c0 -72 13 -106 41 -106 5 0 9 -13 9 -30 0 -20 5 -30 15 -30
10 0 15 10 15 30 0 17 4 30 9 30 28 0 41 34 41 106 0 67 -2 74 -20 74 -18 0
-20 -7 -20 -76 0 -72 -1 -75 -22 -72 -21 3 -23 9 -26 76 -3 64 -5 72 -22 72
-18 0 -20 -7 -20 -74z"/>
<path d="M1270 430 c0 -100 3 -120 15 -120 12 0 15 14 15 67 0 69 7 74 26 20
15 -45 29 -43 45 5 l14 43 3 -67 c3 -60 5 -68 22 -68 19 0 20 8 20 120 0 119
0 120 -23 120 -21 0 -26 -8 -37 -55 -7 -31 -17 -58 -21 -61 -4 -2 -15 23 -25
56 -13 46 -21 60 -35 60 -18 0 -19 -9 -19 -120z"/>
<path d="M1530 430 c0 -100 3 -120 15 -120 12 0 15 15 16 73 l1 72 16 -48 c17
-53 32 -56 47 -9 18 54 25 48 25 -21 0 -53 3 -67 15 -67 13 0 15 20 15 120 0
111 -1 120 -19 120 -14 0 -22 -12 -30 -48 -20 -80 -28 -83 -47 -14 -13 47 -22
62 -36 62 -16 0 -18 -10 -18 -120z"/>
<path d="M1720 430 l0 -120 55 0 c42 0 55 3 55 15 0 10 -11 15 -35 15 -34 0
-35 1 -35 40 0 36 3 40 25 40 16 0 25 6 25 15 0 9 -9 15 -25 15 -22 0 -25 4
-25 35 0 33 2 35 35 35 24 0 35 5 35 15 0 12 -13 15 -55 15 l-55 0 0 -120z"/>
<path d="M1860 430 c0 -113 1 -120 20 -120 16 0 20 7 20 30 0 19 5 30 14 30 7
0 19 -13 26 -30 8 -18 20 -30 31 -30 19 0 19 2 4 31 -12 23 -13 34 -5 44 6 8
10 43 8 87 l-3 73 -57 3 -58 3 0 -121z m88 33 c-3 -51 -6 -58 -25 -61 -22 -3
-23 0 -23 57 0 59 1 61 25 61 25 0 26 -2 23 -57z"/>
<path d="M2020 430 c0 -100 3 -120 15 -120 12 0 15 13 15 55 0 30 4 55 9 55 5
0 19 -25 32 -55 16 -36 30 -55 42 -55 21 0 22 -3 -9 65 -23 50 -25 60 -14 83
40 86 42 92 21 92 -13 0 -25 -15 -40 -50 -12 -27 -26 -50 -31 -50 -6 0 -10 23
-10 50 0 38 -4 50 -15 50 -12 0 -15 -20 -15 -120z"/>
<path d="M2180 430 l0 -120 55 0 c42 0 55 3 55 15 0 11 -11 15 -40 15 l-40 0
0 40 c0 38 2 40 30 40 20 0 30 5 30 15 0 10 -10 15 -30 15 -28 0 -30 3 -30 34
0 33 2 35 37 38 62 5 53 28 -11 28 l-56 0 0 -120z"/>
<path d="M2310 535 c0 -10 11 -15 35 -15 19 0 35 -2 35 -4 0 -2 -18 -47 -40
-100 -22 -53 -40 -98 -40 -101 0 -12 124 0 128 13 2 8 -9 12 -37 12 -23 0 -41
4 -41 8 0 5 16 45 35 89 48 110 47 113 -20 113 -42 0 -55 -3 -55 -15z"/>
<path d="M2450 405 c0 -88 1 -95 20 -95 19 0 20 7 20 95 0 88 -1 95 -20 95
-19 0 -20 -7 -20 -95z"/>
<path d="M993 275 c-15 -16 -2 -28 21 -19 19 7 22 34 4 34 -7 -1 -19 -7 -25
-15z"/>
<path d="M147 123 c84 -2 222 -2 305 0 84 1 16 3 -152 3 -168 0 -236 -2 -153
-3z"/>
</g>
</svg>
