<?xml version="1.0" standalone="no"?>
<!DOCTYPE svg PUBLIC "-//W3C//DTD SVG 20010904//EN"
 "http://www.w3.org/TR/2001/REC-SVG-20010904/DTD/svg10.dtd">
<svg version="1.0" xmlns="http://www.w3.org/2000/svg"
 width="265.000000pt" height="40.000000pt" viewBox="0 0 265.000000 40.000000"
 preserveAspectRatio="xMidYMid meet">

<g transform="translate(0.000000,40.000000) scale(0.100000,-0.100000)"
fill="#000000" stroke="none">
<path d="M973 323 c-9 -3 -13 -34 -13 -109 0 -92 2 -104 18 -104 15 0 17 9 14
77 -4 128 -6 140 -19 136z"/>
<path d="M1043 323 c-9 -3 -13 -34 -13 -109 0 -92 2 -104 18 -104 15 0 17 10
14 87 -4 121 -5 130 -19 126z"/>
<path d="M2325 322 c-6 -4 -10 -53 -10 -110 0 -95 1 -102 20 -102 19 0 20 6
17 110 -3 107 -6 118 -27 102z"/>
<path d="M636 253 c15 -32 34 -75 43 -95 19 -45 24 -46 39 -13 7 15 8 25 2 25
-6 0 -24 32 -41 70 -23 50 -37 70 -50 70 -17 0 -17 -4 7 -57z"/>
<path d="M1630 290 c0 -12 -7 -20 -17 -20 -16 0 -16 -1 0 -12 12 -9 17 -32 19
-78 3 -59 5 -65 26 -68 12 -2 22 1 22 7 0 6 -4 11 -10 11 -6 0 -10 28 -10 64
0 53 3 65 18 69 16 4 16 5 0 6 -11 1 -18 9 -18 21 0 11 -7 20 -15 20 -8 0 -15
-9 -15 -20z"/>
<path d="M435 279 c-11 -6 -32 -26 -47 -46 -26 -33 -26 -36 -11 -59 14 -22 14
-26 -1 -49 -9 -14 -26 -25 -37 -25 -18 0 -19 -2 -9 -15 25 -31 49 -15 131 83
l80 97 -28 12 c-34 15 -51 15 -78 2z"/>
<path d="M815 245 c-65 -64 20 -176 91 -119 18 14 18 15 -5 4 -27 -14 -70 0
-72 22 0 7 -2 24 -3 38 -7 61 45 96 64 44 6 -14 8 -30 4 -35 -3 -5 4 -9 15 -9
12 0 21 7 21 15 0 23 -46 65 -70 65 -11 0 -32 -11 -45 -25z"/>
<path d="M1110 262 c-24 -4 -11 -119 15 -138 22 -16 51 -18 60 -4 4 6 13 5 25
-2 11 -7 20 -10 22 -8 2 3 2 40 0 82 -3 61 -6 76 -18 71 -9 -3 -14 -21 -14
-55 0 -54 -13 -88 -35 -88 -21 0 -30 20 -35 85 -4 47 -8 60 -20 57z"/>
<path d="M1290 261 c-11 -5 -15 -23 -15 -79 0 -65 2 -72 20 -72 18 0 20 6 17
58 -3 49 0 60 18 77 22 19 22 19 36 0 8 -11 14 -43 14 -77 0 -50 3 -58 19 -58
16 0 18 6 14 48 -7 77 -12 92 -37 103 -17 8 -29 8 -44 0 -11 -6 -22 -7 -24 -2
-2 4 -10 6 -18 2z"/>
<path d="M1478 259 c-10 -5 -18 -18 -17 -27 0 -14 3 -13 16 6 18 26 59 29 67
5 3 -10 4 -38 2 -63 -2 -46 7 -70 28 -70 7 0 10 21 8 65 -3 53 -8 68 -25 80
-25 17 -54 19 -79 4z"/>
<path d="M1720 260 c-4 -3 -10 -38 -12 -78 -3 -69 -2 -72 20 -72 21 0 22 4 22
69 0 78 13 97 41 60 13 -18 21 -21 29 -13 28 28 -61 58 -100 34z"/>
<path d="M1862 258 c-12 -12 -17 -38 -6 -38 3 0 14 10 24 23 15 18 22 20 37
11 34 -21 27 -41 -16 -48 -41 -6 -71 -28 -71 -51 0 -22 30 -45 58 -44 26 0 26
1 5 9 -45 18 -20 80 31 80 19 0 21 -32 5 -62 -7 -13 -7 -18 -1 -14 6 3 13 2
17 -4 3 -5 12 -10 19 -10 19 0 9 131 -12 148 -20 15 -74 16 -90 0z"/>
<path d="M1992 263 c2 -5 19 -41 38 -82 l34 -74 38 78 c42 86 41 85 30 85 -4
0 -16 -22 -27 -50 -11 -27 -22 -50 -25 -50 -9 0 -40 67 -40 85 0 9 -10 15 -26
15 -14 0 -24 -3 -22 -7z"/>
<path d="M2177 258 c-40 -31 -40 -103 1 -134 23 -18 64 -17 88 1 17 13 16 14
-20 8 -31 -5 -42 -2 -52 12 -26 36 -17 45 41 45 62 0 68 10 34 54 -22 29 -64
35 -92 14z m61 -10 c7 -7 12 -20 12 -30 0 -14 -8 -18 -35 -18 -39 0 -39 -1
-25 34 10 28 29 33 48 14z"/>
<path d="M234 228 c-5 -17 3 -31 45 -70 43 -42 53 -47 71 -38 31 16 24 42 -23
88 -48 47 -82 54 -93 20z"/>
<path d="M746 225 c-9 -26 -7 -32 5 -12 6 10 9 21 6 23 -2 3 -7 -2 -11 -11z"/>
<path d="M1456 184 c-9 -8 -16 -21 -16 -28 0 -18 33 -46 56 -46 17 0 16 1 -4
16 -26 18 -28 37 -6 58 13 14 13 16 0 16 -8 0 -22 -7 -30 -16z"/>
</g>
</svg>
